<svg width="24" height="24" viewBox="0 0 24 24" fill="none" xmlns="http://www.w3.org/2000/svg">
<path d="M19.5 21.75C19.4005 21.75 19.3052 21.7105 19.2348 21.6402C19.1645 21.5698 19.125 21.4745 19.125 21.375V18.375C19.125 18.2755 19.1645 18.1802 19.2348 18.1098C19.3052 18.0395 19.4005 18 19.5 18C19.5995 18 19.6948 18.0395 19.7652 18.1098C19.8355 18.1802 19.875 18.2755 19.875 18.375V21.375C19.875 21.4745 19.8355 21.5698 19.7652 21.6402C19.6948 21.7105 19.5995 21.75 19.5 21.75Z" fill="#40916C"/>
<path d="M21 17.625H21.75C21.75 18.0228 21.592 18.4044 21.3107 18.6857C21.0294 18.967 20.6478 19.125 20.25 19.125H19.5C19.5 18.7272 19.658 18.3456 19.9393 18.0643C20.2206 17.783 20.6022 17.625 21 17.625Z" fill="#95D5B2"/>
<path d="M17.25 17.625H18C18.3978 17.625 18.7794 17.783 19.0607 18.0643C19.342 18.3456 19.5 18.7272 19.5 19.125H18.75C18.3522 19.125 17.9706 18.967 17.6893 18.6857C17.408 18.4044 17.25 18.0228 17.25 17.625Z" fill="#95D5B2"/>
<path d="M21.7238 17.895C21.6619 18.2406 21.4803 18.5533 21.2108 18.7783C20.9412 19.0032 20.6011 19.126 20.25 19.125H19.5V19.1168C19.5076 18.9152 19.594 18.7246 19.7405 18.5859C19.887 18.4473 20.082 18.3715 20.2838 18.375H20.625C21.0227 18.3743 21.4041 18.2166 21.6863 17.9363C21.6997 17.9234 21.7122 17.9096 21.7238 17.895Z" fill="#52B788"/>
<path d="M19.5001 19.125H18.7501C18.3994 19.1246 18.06 19.0013 17.7907 18.7766C17.5215 18.5519 17.3395 18.24 17.2764 17.895C17.4162 18.0468 17.5861 18.1679 17.7753 18.2505C17.9644 18.3332 18.1687 18.3756 18.3751 18.375H18.7164C18.9181 18.3715 19.1131 18.4473 19.2596 18.5859C19.4062 18.7246 19.4925 18.9152 19.5001 19.1168V19.125Z" fill="#52B788"/>
<path d="M17.625 6.75H20.625C20.625 7.24246 20.528 7.73009 20.3395 8.18506C20.1511 8.64003 19.8749 9.05343 19.5267 9.40165C19.1784 9.74987 18.765 10.0261 18.3101 10.2145C17.8551 10.403 17.3675 10.5 16.875 10.5C16.4772 10.5 16.0956 10.342 15.8143 10.0607C15.533 9.77936 15.375 9.39782 15.375 9C15.375 8.40326 15.6121 7.83097 16.034 7.40901C16.456 6.98705 17.0283 6.75 17.625 6.75Z" fill="#95D5B2"/>
<path d="M20.6213 6.88879C20.5854 7.85846 20.175 8.77647 19.4764 9.44989C18.7778 10.1233 17.8453 10.4997 16.875 10.5C16.4772 10.5 16.0956 10.342 15.8143 10.0607C15.533 9.7794 15.375 9.39787 15.375 9.00004C15.3744 8.54618 15.5117 8.10283 15.7688 7.72879C15.8251 8.08907 16.012 8.41606 16.2938 8.64754C16.845 8.44869 17.4177 8.31528 18 8.25004C17.7975 8.49004 17.61 8.74129 17.4188 8.99254C18.0924 8.96221 18.7454 8.7508 19.309 8.38057C19.8726 8.01034 20.3259 7.49499 20.6213 6.88879Z" fill="#52B788"/>
<path d="M8.6082 14.6711C8.04568 15.2336 7.28273 15.5496 6.4872 15.5496C5.69167 15.5496 4.92873 15.2336 4.3662 14.6711L3.83595 14.1408L5.4267 12.5501C5.84859 12.1282 6.4208 11.8912 7.01745 11.8912C7.6141 11.8912 8.18631 12.1282 8.6082 12.5501C8.88946 12.8314 9.04747 13.2128 9.04747 13.6106C9.04747 14.0084 8.88946 14.3898 8.6082 14.6711Z" fill="#52B788"/>
<path d="M8.60627 14.67C8.3281 14.9491 7.99759 15.1705 7.63369 15.3215C7.26979 15.4726 6.87965 15.5504 6.48564 15.5504C6.09164 15.5504 5.7015 15.4726 5.3376 15.3215C4.9737 15.1705 4.64319 14.9491 4.36502 14.67L3.83252 14.1413L3.84377 14.1263H3.84752C4.29118 14.4872 4.82906 14.7134 5.39736 14.7778C5.96566 14.8423 6.54052 14.7424 7.05377 14.49C6.71565 14.2633 6.36372 14.0579 6.00002 13.875L6.13127 13.86C6.71916 13.7881 7.31369 13.7894 7.90127 13.8638C8.10475 13.6414 8.2362 13.3626 8.27836 13.0641C8.32052 12.7656 8.27143 12.4614 8.13752 12.1913C8.30956 12.2877 8.46733 12.4076 8.60627 12.5475C8.8872 12.8293 9.04496 13.2109 9.04496 13.6088C9.04496 14.0067 8.8872 14.3883 8.60627 14.67Z" fill="#40916C"/>
<path d="M6 13.875L6.13312 13.8585C7.97223 13.6285 9.82879 14.1215 11.3115 15.2336L12 15.75L11.25 17.25L10.371 16.2458C9.24452 14.9581 7.69369 14.1169 6 13.875Z" fill="#95D5B2"/>
<path d="M12 15.75L11.3115 15.2336C10.9763 14.9844 10.6199 14.7649 10.2465 14.5778L10.1827 15.2569C8.89181 14.5282 7.47094 14.0588 6 13.875C7.6936 14.1169 9.24438 14.9579 10.371 16.2454L11.25 17.25L12 15.75Z" fill="#52B788"/>
<path d="M18 8.25C16.9395 8.36788 15.9163 8.7104 14.9986 9.25472C14.0808 9.79904 13.2896 10.5327 12.6776 11.4067L12 12.375L13.125 15L14.184 12.5287C14.9569 10.7255 16.2966 9.22339 18 8.25Z" fill="#BBEFC1"/>
<path d="M13.125 15L14.0333 12.8809L14.1832 12.5287C14.9565 10.7255 16.2964 9.22337 18 8.25C16.3573 8.98033 14.8798 10.0362 13.6567 11.3539C13.5727 11.0824 13.4831 10.8124 13.3819 10.5472C13.1263 10.816 12.8909 11.1033 12.6776 11.4067L12 12.375L13.125 15Z" fill="#95D5B2"/>
<path d="M3.75 1.125H6.75C8.14239 1.125 9.47774 1.67812 10.4623 2.66269C11.4469 3.64726 12 4.98261 12 6.375C12 6.97174 11.7629 7.54403 11.341 7.96599C10.919 8.38795 10.3467 8.625 9.75 8.625C8.1587 8.625 6.63258 7.99286 5.50736 6.86764C4.38214 5.74242 3.75 4.2163 3.75 2.625V1.125Z" fill="#95D5B2"/>
<path d="M12 6.375C11.9991 6.97146 11.7618 7.54324 11.34 7.965C10.9182 8.38677 10.3465 8.62411 9.75 8.625C8.1587 8.625 6.63258 7.99286 5.50736 6.86764C4.38214 5.74242 3.75 4.2163 3.75 2.625V1.125H3.765C3.84557 2.43249 4.3523 3.67757 5.20766 4.66973C6.06302 5.66189 7.21989 6.34648 8.50125 6.61875C8.01979 5.48532 7.43349 4.39935 6.75 3.375C8.21944 4.19088 9.51705 5.28347 10.5713 6.5925C10.8741 6.47417 11.1476 6.2915 11.3729 6.05712C11.5982 5.82275 11.7699 5.54224 11.8763 5.235C11.9594 5.60928 12.0009 5.9916 12 6.375Z" fill="#52B788"/>
<path d="M6.75 3.375C8.79583 4.51152 10.5005 6.17447 11.6873 8.19152C12.8742 10.2086 13.5 12.5063 13.5 14.8466V19.875H10.5L11.0059 14.4806C11.1983 12.4269 10.9145 10.3564 10.1763 8.43025C9.43818 6.50409 8.26568 4.77416 6.75 3.375Z" fill="#BBEFC1"/>
<path d="M6.75 3.375C9.91915 6.54421 12.009 10.6315 12.7226 15.0563L13.5 19.875H10.5L11.0059 14.4806C11.1983 12.4269 10.9145 10.3564 10.1763 8.43025C9.43818 6.50409 8.26568 4.77416 6.75 3.375Z" fill="#95D5B2"/>
<path d="M20.1971 21.4272C20.1195 21.1595 19.9442 20.9308 19.7059 20.7862C19.4676 20.6417 19.1837 20.5919 18.9105 20.6468C18.807 20.4571 18.6633 20.2923 18.4895 20.164C18.3156 20.0357 18.1158 19.947 17.904 19.9042C17.6922 19.8613 17.4736 19.8653 17.2635 19.9158C17.0534 19.9664 16.857 20.0623 16.6879 20.1968C16.5722 19.9502 16.4039 19.7319 16.1948 19.5574C15.9857 19.3829 15.7408 19.2563 15.4775 19.1867C15.2142 19.117 14.9388 19.1059 14.6708 19.1541C14.4027 19.2024 14.1485 19.3088 13.926 19.4659C13.7498 19.1721 13.5087 18.9224 13.2212 18.7361C12.9337 18.5498 12.6074 18.4316 12.2672 18.3908C11.927 18.3499 11.582 18.3874 11.2586 18.5004C10.9351 18.6133 10.6418 18.7988 10.401 19.0425C10.2956 18.8081 10.113 18.6168 9.88378 18.5006C9.65452 18.3844 9.39237 18.3501 9.14095 18.4036C8.88953 18.4571 8.664 18.595 8.5019 18.7945C8.3398 18.994 8.2509 19.243 8.25 19.5C8.24984 19.5032 8.24984 19.5063 8.25 19.5094C7.9936 19.3127 7.69039 19.1862 7.37024 19.1423C7.05008 19.0985 6.72402 19.1388 6.42416 19.2592C6.12431 19.3797 5.861 19.5762 5.66018 19.8293C5.45936 20.0825 5.32794 20.3836 5.27887 20.703C5.13918 20.6479 4.98979 20.6217 4.83969 20.6259C4.68959 20.6301 4.54189 20.6646 4.40549 20.7274C4.26909 20.7902 4.14681 20.8799 4.04601 20.9912C3.94522 21.1025 3.868 21.2331 3.819 21.375H3.375C2.97718 21.375 2.59564 21.5331 2.31434 21.8144C2.03304 22.0957 1.875 22.4772 1.875 22.875H22.125C21.9372 22.5013 21.6654 22.1761 21.331 21.9249C20.9965 21.6737 20.6084 21.5033 20.1971 21.4272Z" fill="#FDC741"/>
<path d="M20.1971 21.4272C20.1641 21.3181 20.1146 21.2146 20.0505 21.1204L19.959 21.5202L19.9545 21.5393C19.9065 21.717 19.8148 21.8798 19.6878 22.013C19.5607 22.1461 19.4023 22.2453 19.227 22.3014C19.0517 22.3576 18.8652 22.369 18.6844 22.3345C18.5036 22.3 18.3343 22.2208 18.192 22.104C17.9243 21.8754 17.5837 21.7498 17.2316 21.75H17.2226C16.6397 21.7402 16.0704 21.5716 15.576 21.2625C15.2887 21.0904 14.9599 20.9997 14.625 21C14.5699 21 14.5151 21.0023 14.4611 21.0072C13.8565 21.0352 13.258 20.8758 12.7474 20.5508C12.3961 20.3481 11.9965 20.2442 11.591 20.2502C11.1855 20.2563 10.7892 20.3719 10.4441 20.5849C10.3311 20.6513 10.1998 20.6798 10.0694 20.6663C9.93898 20.6528 9.81631 20.598 9.71925 20.5099C9.57304 20.3881 9.38648 20.3255 9.19639 20.3345C9.00631 20.3436 8.82651 20.4235 8.6925 20.5587L8.57363 20.679C8.38936 20.8561 8.16263 20.9829 7.91524 21.047C7.66785 21.1112 7.40811 21.1106 7.161 21.0454L6.7305 21C6.22032 21.0076 5.72383 20.8349 5.32837 20.5125C5.30882 20.5752 5.29267 20.639 5.28 20.7034C5.14027 20.6481 4.99079 20.6217 4.84059 20.6258C4.69038 20.6299 4.54255 20.6643 4.40602 20.7271C4.26949 20.7899 4.14709 20.8796 4.0462 20.991C3.94531 21.1023 3.86802 21.233 3.819 21.375H3.375C2.97718 21.375 2.59564 21.5331 2.31434 21.8144C2.03304 22.0957 1.875 22.4772 1.875 22.875H22.125C21.9372 22.5013 21.6654 22.1761 21.331 21.9249C20.9965 21.6737 20.6084 21.5033 20.1971 21.4272Z" fill="#EFAD1B"/>
</svg>
