<svg width="250" height="42" viewBox="0 0 250 42" fill="none" xmlns="http://www.w3.org/2000/svg">
<path d="M0 5C0 2.23858 2.23858 0 5 0H242.335C245.946 0 248.366 3.71017 246.911 7.01484L232.877 38.8898C232.078 40.704 230.283 41.875 228.301 41.875H5C2.23858 41.875 0 39.6364 0 36.875V5Z" fill="#1E2B3C"/>
<path d="M23.6313 12.3156C24.5313 12.3156 25.4406 12.325 26.3594 12.3437C27.2781 12.3437 28.1875 12.3531 29.0875 12.3719C29.9875 12.3906 30.85 12.4375 31.675 12.5125L31.5344 14.425H24.25C23.5938 14.425 23.1156 14.575 22.8156 14.875C22.5156 15.1562 22.3656 15.625 22.3656 16.2812V31.75H19.8906V15.8031C19.8906 14.6969 20.2281 13.8437 20.9031 13.2437C21.5781 12.625 22.4875 12.3156 23.6313 12.3156ZM20.3688 20.7812H30.4656V22.7781H20.3688V20.7812ZM40.6645 17.7156C41.677 17.7156 42.5301 17.8562 43.2238 18.1375C43.9363 18.4 44.4707 18.85 44.827 19.4875C45.1832 20.125 45.3613 20.9969 45.3613 22.1031V31.75H43.477L43.1113 28.7687L42.9426 28.4594V22.1031C42.9426 21.2594 42.7457 20.6594 42.352 20.3031C41.977 19.9281 41.2457 19.7406 40.1582 19.7406C39.4457 19.7406 38.5457 19.7781 37.4582 19.8531C36.3895 19.9281 35.3301 20.0125 34.2801 20.1062L34.0551 18.3344C34.6926 18.2219 35.3863 18.1187 36.1363 18.025C36.9051 17.9312 37.6832 17.8562 38.4707 17.8C39.2582 17.7437 39.9895 17.7156 40.6645 17.7156ZM44.2363 23.3125L44.2082 25.1125L37.6551 25.1406C36.9988 25.1594 36.5395 25.3375 36.277 25.675C36.0145 25.9937 35.8832 26.4437 35.8832 27.025V27.8969C35.8832 28.6094 36.052 29.1344 36.3895 29.4719C36.727 29.7906 37.2707 29.95 38.0207 29.95C38.5457 29.95 39.1363 29.8562 39.7926 29.6687C40.4676 29.4625 41.1426 29.1531 41.8176 28.7406C42.4926 28.3281 43.1113 27.8031 43.6738 27.1656V28.9375C43.4676 29.2 43.1676 29.5094 42.7738 29.8656C42.3988 30.2031 41.9395 30.5406 41.3957 30.8781C40.8707 31.1969 40.2801 31.4687 39.6238 31.6937C38.9863 31.9 38.2926 32.0031 37.5426 32.0031C36.7363 32.0031 36.0238 31.8625 35.4051 31.5812C34.7863 31.2812 34.2988 30.85 33.9426 30.2875C33.6051 29.7062 33.4363 29.0031 33.4363 28.1781V26.6875C33.4363 25.6187 33.7645 24.7937 34.4207 24.2125C35.0957 23.6125 36.0332 23.3125 37.2332 23.3125H44.2363ZM51.4877 18.0531L51.7971 20.6687L52.0221 21.0906V31.75H49.6315V18.0531H51.4877ZM58.2096 17.7156L57.9284 19.9656H57.1409C56.3346 19.9656 55.5284 20.1344 54.7221 20.4719C53.9159 20.7906 52.9315 21.25 51.769 21.85L51.5721 20.3594C52.5846 19.5344 53.5971 18.8875 54.6096 18.4187C55.6409 17.95 56.6346 17.7156 57.5909 17.7156H58.2096ZM77.5981 17.7156C78.7793 17.7156 79.6793 18.0344 80.2981 18.6719C80.9356 19.3094 81.2543 20.2469 81.2543 21.4844V31.75H78.8918V22.1594C78.8731 21.3156 78.7043 20.7062 78.3856 20.3312C78.0668 19.9375 77.5231 19.7406 76.7543 19.7406C76.2668 19.7406 75.7981 19.825 75.3481 19.9937C74.9168 20.1437 74.4387 20.3875 73.9137 20.725C73.3887 21.0625 72.7512 21.5031 72.0012 22.0469L71.8606 20.3594C72.8543 19.4781 73.82 18.8219 74.7575 18.3906C75.695 17.9406 76.6418 17.7156 77.5981 17.7156ZM62.8887 18.0531L63.0575 20.6687L63.3106 21.0906V31.75H60.92V18.0531H62.8887ZM68.6262 17.7156C69.7887 17.7156 70.6793 18.0344 71.2981 18.6719C71.9168 19.2906 72.2356 20.2281 72.2543 21.4844V31.75H69.9481V22.1594C69.9481 21.2781 69.77 20.6594 69.4137 20.3031C69.0575 19.9281 68.5231 19.7406 67.8106 19.7406C67.3418 19.7406 66.8825 19.8156 66.4325 19.9656C66.0012 20.1156 65.5137 20.3594 64.97 20.6969C64.445 21.0344 63.7981 21.4844 63.0293 22.0469L62.8606 20.3594C63.8543 19.4781 64.82 18.8219 65.7575 18.3906C66.695 17.9406 67.6512 17.7156 68.6262 17.7156ZM91.1818 17.7156C93.2443 17.7156 94.7349 18.0906 95.6537 18.8406C96.5912 19.5906 97.0599 20.7062 97.0599 22.1875C97.0787 23.4062 96.8255 24.3625 96.3005 25.0562C95.7755 25.7312 94.9412 26.0687 93.7974 26.0687H85.8099V24.2125H93.1787C93.7974 24.2125 94.2005 24.0062 94.388 23.5937C94.5755 23.1625 94.6693 22.6937 94.6693 22.1875C94.6505 21.3062 94.388 20.6781 93.8818 20.3031C93.3755 19.9281 92.513 19.7406 91.2943 19.7406C90.3005 19.7406 89.513 19.8906 88.9318 20.1906C88.3693 20.4719 87.9662 20.9781 87.7224 21.7094C87.4974 22.4219 87.3849 23.425 87.3849 24.7187C87.3849 26.1812 87.5255 27.2969 87.8068 28.0656C88.1068 28.8344 88.5755 29.3594 89.213 29.6406C89.8505 29.9219 90.6943 30.0625 91.7443 30.0625C92.4755 30.0625 93.2724 30.0344 94.1349 29.9781C95.0162 29.9031 95.8037 29.8187 96.4974 29.725L96.7505 31.3281C96.3193 31.4969 95.7849 31.6375 95.1474 31.75C94.5287 31.8625 93.8818 31.9469 93.2068 32.0031C92.5505 32.0594 91.9599 32.0875 91.4349 32.0875C89.8599 32.0875 88.5943 31.8531 87.638 31.3844C86.6818 30.8969 85.9787 30.1281 85.5287 29.0781C85.0974 28.0094 84.8818 26.6031 84.8818 24.8594C84.8818 23.0594 85.0974 21.6437 85.5287 20.6125C85.9787 19.5625 86.663 18.8219 87.5818 18.3906C88.5193 17.9406 89.7193 17.7156 91.1818 17.7156ZM102.519 18.0531L102.829 20.6687L103.054 21.0906V31.75H100.663V18.0531H102.519ZM109.241 17.7156L108.96 19.9656H108.172C107.366 19.9656 106.56 20.1344 105.754 20.4719C104.947 20.7906 103.963 21.25 102.8 21.85L102.604 20.3594C103.616 19.5344 104.629 18.8875 105.641 18.4187C106.672 17.95 107.666 17.7156 108.622 17.7156H109.241ZM113.133 11.4437C113.47 11.4437 113.695 11.5094 113.808 11.6406C113.939 11.7531 114.005 11.9687 114.005 12.2875V13.9469C113.986 14.4531 113.939 14.9406 113.864 15.4094C113.789 15.8781 113.676 16.3281 113.526 16.7594C113.395 17.1906 113.226 17.6031 113.02 17.9969L111.895 17.6875C111.989 17.1437 112.055 16.6469 112.092 16.1969C112.148 15.7281 112.176 15.175 112.176 14.5375C111.726 14.5375 111.501 14.2937 111.501 13.8062V12.2875C111.52 11.9687 111.605 11.7531 111.755 11.6406C111.905 11.5094 112.13 11.4437 112.43 11.4437H113.133ZM122.166 17.7156C122.766 17.7156 123.403 17.7344 124.078 17.7719C124.753 17.8094 125.419 17.8562 126.075 17.9125C126.75 17.9687 127.369 18.0437 127.931 18.1375L127.734 19.8812C126.872 19.8437 126 19.8156 125.119 19.7969C124.256 19.7594 123.394 19.7406 122.531 19.7406C121.688 19.7219 121.022 19.7406 120.534 19.7969C120.047 19.8531 119.691 20.0031 119.466 20.2469C119.259 20.4906 119.156 20.9031 119.156 21.4844C119.156 22.1969 119.325 22.6656 119.663 22.8906C120 23.1156 120.497 23.3031 121.153 23.4531L125.147 24.3531C126.234 24.6156 127.031 25.0187 127.538 25.5625C128.063 26.1062 128.325 26.9594 128.325 28.1219C128.325 29.2469 128.109 30.0906 127.678 30.6531C127.266 31.2156 126.628 31.5906 125.766 31.7781C124.903 31.9656 123.806 32.0594 122.475 32.0594C121.988 32.0594 121.256 32.0406 120.281 32.0031C119.325 31.9656 118.266 31.8531 117.103 31.6656L117.272 29.9219C117.722 29.9406 118.2 29.9687 118.706 30.0062C119.213 30.025 119.738 30.0344 120.281 30.0344C120.844 30.0344 121.416 30.0344 121.997 30.0344C123.028 30.0344 123.834 29.9875 124.416 29.8937C124.997 29.8 125.409 29.6219 125.653 29.3594C125.897 29.0781 126.019 28.6656 126.019 28.1219C126.019 27.4469 125.822 26.9969 125.428 26.7719C125.034 26.5469 124.509 26.3594 123.853 26.2094L119.916 25.3094C119.166 25.1219 118.566 24.8781 118.116 24.5781C117.666 24.2594 117.338 23.8562 117.131 23.3687C116.925 22.8625 116.822 22.2344 116.822 21.4844C116.822 20.4156 117.009 19.6094 117.384 19.0656C117.759 18.5219 118.341 18.1562 119.128 17.9687C119.916 17.7812 120.928 17.6969 122.166 17.7156Z" fill="white"/>
<path d="M145.298 12.0062C146.123 12.0062 146.826 12.025 147.407 12.0625C148.007 12.1 148.551 12.1656 149.038 12.2594C149.544 12.3344 150.06 12.4375 150.585 12.5687L150.332 14.4531C149.769 14.3969 149.244 14.35 148.757 14.3125C148.288 14.275 147.782 14.2469 147.238 14.2281C146.694 14.2094 146.048 14.2 145.298 14.2C144.041 14.2 143.048 14.4437 142.316 14.9312C141.585 15.4187 141.06 16.2344 140.741 17.3781C140.441 18.5219 140.291 20.0781 140.291 22.0469C140.291 24.0156 140.441 25.5719 140.741 26.7156C141.06 27.8594 141.585 28.675 142.316 29.1625C143.048 29.65 144.041 29.8937 145.298 29.8937C146.498 29.8937 147.501 29.875 148.307 29.8375C149.132 29.7812 149.938 29.6969 150.726 29.5844L150.979 31.4406C150.173 31.6656 149.338 31.825 148.476 31.9188C147.632 32.0313 146.573 32.0875 145.298 32.0875C143.441 32.0875 141.951 31.7687 140.826 31.1312C139.719 30.475 138.913 29.4156 138.407 27.9531C137.919 26.4906 137.676 24.5219 137.676 22.0469C137.676 19.5719 137.919 17.6031 138.407 16.1406C138.913 14.6781 139.719 13.6281 140.826 12.9906C141.951 12.3344 143.441 12.0062 145.298 12.0062ZM162.519 17.7156C164.994 17.7156 166.231 18.9719 166.231 21.4844V31.75H163.813V22.1594C163.813 21.2406 163.663 20.6125 163.363 20.275C163.081 19.9187 162.585 19.7406 161.872 19.7406C161.028 19.7406 160.185 19.9375 159.341 20.3312C158.497 20.725 157.494 21.2969 156.331 22.0469L156.219 20.3312C157.288 19.525 158.347 18.8875 159.397 18.4187C160.447 17.95 161.488 17.7156 162.519 17.7156ZM156.585 12.0625L156.613 17.4906C156.613 18.1094 156.585 18.6906 156.528 19.2344C156.491 19.7781 156.425 20.2562 156.331 20.6687L156.585 21.0906V31.75H154.194V12.0625H156.585ZM176.33 17.7156C177.905 17.7156 179.161 17.95 180.099 18.4187C181.055 18.8875 181.739 19.6562 182.152 20.725C182.564 21.775 182.77 23.1719 182.77 24.9156C182.77 26.6594 182.564 28.0656 182.152 29.1344C181.739 30.1844 181.055 30.9437 180.099 31.4125C179.161 31.8813 177.905 32.1156 176.33 32.1156C174.774 32.1156 173.517 31.8813 172.561 31.4125C171.624 30.9437 170.939 30.1844 170.508 29.1344C170.095 28.0656 169.889 26.6594 169.889 24.9156C169.889 23.1719 170.095 21.775 170.508 20.725C170.939 19.6562 171.624 18.8875 172.561 18.4187C173.517 17.95 174.774 17.7156 176.33 17.7156ZM176.33 19.7406C175.336 19.7406 174.549 19.9 173.967 20.2187C173.405 20.5187 173.002 21.0437 172.758 21.7937C172.514 22.5437 172.392 23.5844 172.392 24.9156C172.392 26.2469 172.514 27.2875 172.758 28.0375C173.002 28.7875 173.405 29.3219 173.967 29.6406C174.549 29.9406 175.336 30.0906 176.33 30.0906C177.324 30.0906 178.111 29.9406 178.692 29.6406C179.274 29.3219 179.686 28.7875 179.93 28.0375C180.174 27.2875 180.295 26.2469 180.295 24.9156C180.295 23.5844 180.174 22.5437 179.93 21.7937C179.686 21.0437 179.274 20.5187 178.692 20.2187C178.111 19.9 177.324 19.7406 176.33 19.7406ZM188.996 18.0531V31.75H186.634V18.0531H188.996ZM188.377 12.2312C188.865 12.2312 189.109 12.475 189.109 12.9625V14.5656C189.109 15.0531 188.865 15.2969 188.377 15.2969H187.252C186.765 15.2969 186.521 15.0531 186.521 14.5656V12.9625C186.521 12.475 186.765 12.2312 187.252 12.2312H188.377ZM199.347 17.7156C199.76 17.7156 200.219 17.7344 200.726 17.7719C201.232 17.8094 201.747 17.875 202.272 17.9687C202.816 18.0625 203.313 18.1937 203.763 18.3625L203.454 19.9094C202.835 19.8531 202.179 19.8156 201.485 19.7969C200.81 19.7594 200.229 19.7406 199.741 19.7406C198.654 19.7406 197.791 19.8906 197.154 20.1906C196.516 20.4906 196.057 21.0156 195.776 21.7656C195.494 22.5156 195.354 23.5562 195.354 24.8875C195.354 26.2187 195.494 27.2687 195.776 28.0375C196.057 28.7875 196.516 29.3125 197.154 29.6125C197.791 29.9125 198.654 30.0625 199.741 30.0625C200.022 30.0625 200.388 30.0531 200.838 30.0344C201.288 30.0156 201.766 29.9875 202.272 29.95C202.797 29.9125 203.294 29.8562 203.763 29.7812L204.016 31.3844C203.322 31.6281 202.563 31.8063 201.738 31.9188C200.932 32.0313 200.126 32.0875 199.319 32.0875C197.744 32.0875 196.479 31.8531 195.522 31.3844C194.566 30.9156 193.872 30.1562 193.441 29.1062C193.029 28.0562 192.822 26.65 192.822 24.8875C192.822 23.125 193.038 21.7187 193.469 20.6687C193.901 19.6187 194.594 18.8687 195.551 18.4187C196.507 17.95 197.772 17.7156 199.347 17.7156ZM212.663 17.7156C214.726 17.7156 216.216 18.0906 217.135 18.8406C218.073 19.5906 218.541 20.7062 218.541 22.1875C218.56 23.4062 218.307 24.3625 217.782 25.0562C217.257 25.7312 216.423 26.0687 215.279 26.0687H207.291V24.2125H214.66C215.279 24.2125 215.682 24.0062 215.869 23.5937C216.057 23.1625 216.151 22.6937 216.151 22.1875C216.132 21.3062 215.869 20.6781 215.363 20.3031C214.857 19.9281 213.994 19.7406 212.776 19.7406C211.782 19.7406 210.994 19.8906 210.413 20.1906C209.851 20.4719 209.448 20.9781 209.204 21.7094C208.979 22.4219 208.866 23.425 208.866 24.7187C208.866 26.1812 209.007 27.2969 209.288 28.0656C209.588 28.8344 210.057 29.3594 210.694 29.6406C211.332 29.9219 212.176 30.0625 213.226 30.0625C213.957 30.0625 214.754 30.0344 215.616 29.9781C216.498 29.9031 217.285 29.8187 217.979 29.725L218.232 31.3281C217.801 31.4969 217.266 31.6375 216.629 31.75C216.01 31.8625 215.363 31.9469 214.688 32.0031C214.032 32.0594 213.441 32.0875 212.916 32.0875C211.341 32.0875 210.076 31.8531 209.119 31.3844C208.163 30.8969 207.46 30.1281 207.01 29.0781C206.579 28.0094 206.363 26.6031 206.363 24.8594C206.363 23.0594 206.579 21.6437 207.01 20.6125C207.46 19.5625 208.144 18.8219 209.063 18.3906C210.001 17.9406 211.201 17.7156 212.663 17.7156Z" fill="#54DC14"/>
</svg>
