<svg width="24" height="24" viewBox="0 0 24 24" fill="none" xmlns="http://www.w3.org/2000/svg">
<g clip-path="url(#clip0_207_1595)">
<path d="M15 9.375H21.75V22.125C21.75 22.5228 21.592 22.9044 21.3107 23.1857C21.0294 23.467 20.6478 23.625 20.25 23.625H14.625V9.375H15Z" fill="#FFAD39"/>
<path d="M9.375 9.375V23.625H3.75C3.35218 23.625 2.97064 23.467 2.68934 23.1857C2.40804 22.9044 2.25 22.5228 2.25 22.125V9.375H9.375Z" fill="#FFAD39"/>
<path d="M9 4.875V9.375H1.125C0.92627 9.37441 0.735849 9.2952 0.595326 9.15467C0.454802 9.01415 0.375594 8.82373 0.375 8.625V5.625C0.375594 5.42627 0.454802 5.23585 0.595326 5.09533C0.735849 4.9548 0.92627 4.87559 1.125 4.875H9Z" fill="#FEBD55"/>
<path d="M23.625 5.625V8.625C23.6244 8.82373 23.5452 9.01415 23.4047 9.15467C23.2642 9.2952 23.0737 9.37441 22.875 9.375H15V4.875H22.875C23.0737 4.87559 23.2642 4.9548 23.4047 5.09533C23.5452 5.23585 23.6244 5.42627 23.625 5.625Z" fill="#FEBD55"/>
<path d="M13.875 4.125V4.875H10.125V4.125C10.1256 3.92627 10.2048 3.73585 10.3453 3.59533C10.4858 3.4548 10.6763 3.37559 10.875 3.375H13.125C13.3237 3.37559 13.5142 3.4548 13.6547 3.59533C13.7952 3.73585 13.8744 3.92627 13.875 4.125Z" fill="#CB3541"/>
<path d="M13.125 4.125H10.875C10.7441 4.12428 10.6156 4.08928 10.5023 4.02349C10.3891 3.9577 10.2951 3.86341 10.2296 3.75C10.1619 3.86343 10.1258 3.99291 10.125 4.125V4.875H13.875V4.125C13.8742 3.99291 13.8381 3.86343 13.7704 3.75C13.7049 3.86341 13.6109 3.9577 13.4977 4.02349C13.3844 4.08928 13.2559 4.12428 13.125 4.125Z" fill="#A81E29"/>
<path d="M10.125 4.125V4.875H4.50001C4.3514 4.87817 4.20369 4.85124 4.06576 4.79582C3.92784 4.74041 3.80256 4.65766 3.69745 4.55256C3.59235 4.44745 3.5096 4.32217 3.45418 4.18424C3.39877 4.04632 3.37184 3.89861 3.37501 3.75C3.37501 2.25 5.25001 2.25 5.25001 2.25C7.04965 2.25765 8.78406 2.92473 10.125 4.125Z" fill="#E03E3E"/>
<path d="M7.125 0.375C10.125 0.375 10.125 4.125 10.125 4.125C8.78405 2.92473 7.04964 2.25765 5.25 2.25C5.25 2.25 5.25 0.375 7.125 0.375Z" fill="#CB3541"/>
<path d="M13.875 4.125C13.875 4.125 13.875 0.375 16.875 0.375C18.75 0.375 18.75 2.25 18.75 2.25C16.9504 2.25765 15.2159 2.92473 13.875 4.125Z" fill="#CB3541"/>
<path d="M13.875 4.125C15.2159 2.92473 16.9504 2.25765 18.75 2.25C18.75 2.25 20.625 2.25 20.625 3.75C20.6282 3.89861 20.6012 4.04632 20.5458 4.18424C20.4904 4.32217 20.4077 4.44745 20.3026 4.55256C20.1975 4.65766 20.0722 4.74041 19.9342 4.79582C19.7963 4.85124 19.6486 4.87817 19.5 4.875H13.875V4.125Z" fill="#E03E3E"/>
<path d="M9.375 9.375H14.625V23.625H9.375V9.375Z" fill="#CB3541"/>
<path d="M15 4.875V9.375H14.625H9.375H9V4.875H10.125H13.875H15Z" fill="#FF6161"/>
<path d="M22.7363 15.855C22.815 16.2112 23.625 16.4925 23.625 16.875C23.625 17.2575 22.815 17.5387 22.7363 17.895C22.6538 18.2625 23.2612 18.8775 23.1075 19.2075C22.9462 19.545 22.0987 19.44 21.87 19.7325C21.6412 20.025 21.9337 20.8462 21.6487 21.0787C21.3637 21.3112 20.6437 20.8387 20.3137 21.0037C19.9912 21.165 19.9012 22.035 19.545 22.1175C19.1962 22.2 18.7463 21.4575 18.375 21.4575C18.0037 21.4575 17.5538 22.2 17.205 22.1175C16.8488 22.035 16.7587 21.165 16.4325 21.0037C16.1062 20.8425 15.3825 21.3112 15.1013 21.0787C14.82 20.8462 15.105 20.0212 14.8762 19.7325C14.6475 19.4437 13.8038 19.545 13.6425 19.2075C13.4888 18.8775 14.0962 18.2625 14.0137 17.895C13.935 17.5387 13.125 17.2575 13.125 16.875C13.125 16.4925 13.935 16.2112 14.0137 15.855C14.0962 15.4875 13.4888 14.8725 13.6425 14.5425C13.8038 14.205 14.6513 14.31 14.88 14.0175C15.1088 13.725 14.8163 12.9037 15.1013 12.6712C15.3863 12.4387 16.1063 12.9112 16.4363 12.7462C16.7588 12.585 16.8488 11.715 17.205 11.6325C17.5538 11.55 18.0037 12.2925 18.375 12.2925C18.7463 12.2925 19.1962 11.55 19.545 11.6325C19.9012 11.715 19.9913 12.585 20.3175 12.7462C20.6438 12.9075 21.3675 12.4387 21.6487 12.6712C21.93 12.9037 21.645 13.7287 21.8738 14.0175C22.1025 14.3062 22.9462 14.205 23.1075 14.5425C23.2612 14.8725 22.6538 15.4875 22.7363 15.855Z" fill="#CB3541"/>
<path d="M22.5 16.875C22.5 17.175 21.8625 17.3966 21.8014 17.6764C21.7373 17.9659 22.2139 18.4481 22.092 18.7091C21.9701 18.9701 21.3 18.8914 21.1223 19.119C20.9445 19.3466 21.1703 19.9957 20.9471 20.1784C20.724 20.361 20.1596 19.9909 19.8998 20.1187C19.6399 20.2466 19.575 20.9295 19.293 20.9951C19.0196 21.0589 18.6671 20.4742 18.375 20.4742C18.0829 20.4742 17.7304 21.0589 17.457 20.9951C17.1746 20.9295 17.1049 20.2451 16.8502 20.1187C16.5956 19.9924 16.0252 20.3602 15.8029 20.1784C15.5805 19.9965 15.8059 19.3477 15.6274 19.119C15.4489 18.8902 14.7825 18.975 14.6576 18.7087C14.5328 18.4425 15.0127 17.9655 14.9486 17.6764C14.8875 17.3962 14.25 17.175 14.25 16.875C14.25 16.575 14.8875 16.3534 14.9486 16.0736C15.0127 15.7841 14.5361 15.3019 14.658 15.0409C14.7799 14.7799 15.45 14.8586 15.6277 14.631C15.8055 14.4034 15.5797 13.7542 15.8029 13.5716C16.026 13.389 16.5904 13.7591 16.8502 13.6312C17.1101 13.5034 17.175 12.8205 17.457 12.7549C17.7304 12.6911 18.0829 13.2757 18.375 13.2757C18.6671 13.2757 19.0196 12.6911 19.293 12.7549C19.5754 12.8205 19.6451 13.5049 19.8998 13.6312C20.1544 13.7576 20.7248 13.3897 20.9471 13.5716C21.1695 13.7535 20.9441 14.4022 21.1226 14.631C21.3011 14.8597 21.9675 14.7761 22.0924 15.0412C22.2172 15.3064 21.7373 15.7845 21.8014 16.0736C21.8625 16.3537 22.5 16.575 22.5 16.875Z" fill="#FF6161"/>
<path d="M19.5 19.875C19.2775 19.875 19.06 19.809 18.875 19.6854C18.69 19.5618 18.5458 19.3861 18.4606 19.1805C18.3755 18.975 18.3532 18.7488 18.3966 18.5305C18.44 18.3123 18.5472 18.1118 18.7045 17.9545C18.8618 17.7972 19.0623 17.69 19.2805 17.6466C19.4988 17.6032 19.725 17.6255 19.9305 17.7106C20.1361 17.7958 20.3118 17.94 20.4354 18.125C20.559 18.31 20.625 18.5275 20.625 18.75C20.625 19.0484 20.5065 19.3345 20.2955 19.5455C20.0845 19.7565 19.7984 19.875 19.5 19.875ZM19.5 18.375C19.4258 18.375 19.3533 18.397 19.2917 18.4382C19.23 18.4794 19.1819 18.538 19.1535 18.6065C19.1252 18.675 19.1177 18.7504 19.1322 18.8232C19.1467 18.8959 19.1824 18.9627 19.2348 19.0152C19.2873 19.0676 19.3541 19.1033 19.4268 19.1178C19.4996 19.1323 19.575 19.1248 19.6435 19.0965C19.712 19.0681 19.7706 19.02 19.8118 18.9583C19.853 18.8967 19.875 18.8242 19.875 18.75C19.875 18.6505 19.8355 18.5552 19.7652 18.4848C19.6948 18.4145 19.5995 18.375 19.5 18.375Z" fill="#FBFBFB"/>
<path d="M17.25 16.125C17.0275 16.125 16.81 16.059 16.625 15.9354C16.44 15.8118 16.2958 15.6361 16.2106 15.4305C16.1255 15.225 16.1032 14.9988 16.1466 14.7805C16.19 14.5623 16.2972 14.3618 16.4545 14.2045C16.6118 14.0472 16.8123 13.94 17.0305 13.8966C17.2488 13.8532 17.475 13.8755 17.6805 13.9606C17.8861 14.0458 18.0618 14.19 18.1854 14.375C18.309 14.56 18.375 14.7775 18.375 15C18.375 15.2984 18.2565 15.5845 18.0455 15.7955C17.8345 16.0065 17.5484 16.125 17.25 16.125ZM17.25 14.625C17.1758 14.625 17.1033 14.647 17.0417 14.6882C16.98 14.7294 16.9319 14.788 16.9035 14.8565C16.8752 14.925 16.8677 15.0004 16.8822 15.0732C16.8967 15.1459 16.9324 15.2127 16.9848 15.2652C17.0373 15.3176 17.1041 15.3533 17.1768 15.3678C17.2496 15.3823 17.325 15.3748 17.3935 15.3465C17.462 15.3181 17.5206 15.27 17.5618 15.2083C17.603 15.1467 17.625 15.0742 17.625 15C17.625 14.9005 17.5855 14.8052 17.5152 14.7348C17.4448 14.6645 17.3495 14.625 17.25 14.625Z" fill="#FBFBFB"/>
<path d="M16.4999 19.125C16.4258 19.125 16.3533 19.103 16.2916 19.0618C16.23 19.0206 16.1819 18.962 16.1535 18.8935C16.1252 18.825 16.1177 18.7496 16.1322 18.6769C16.1467 18.6041 16.1824 18.5373 16.2348 18.4849L19.9848 14.7349C20.0555 14.6666 20.1502 14.6288 20.2486 14.6296C20.3469 14.6305 20.4409 14.6699 20.5105 14.7394C20.58 14.809 20.6194 14.903 20.6203 15.0013C20.6212 15.0997 20.5834 15.1944 20.515 15.2651L16.765 19.0151C16.6947 19.0855 16.5994 19.125 16.4999 19.125Z" fill="#FBFBFB"/>
<path d="M21.75 10.875V9.375H15H14.625V10.875H21.75Z" fill="#E68C15"/>
<path d="M20.25 22.125H14.625V23.625H20.25C20.6478 23.625 21.0294 23.467 21.3107 23.1857C21.592 22.9044 21.75 22.5228 21.75 22.125V20.625C21.75 21.0228 21.592 21.4044 21.3107 21.6857C21.0294 21.967 20.6478 22.125 20.25 22.125Z" fill="#E68C15"/>
<path d="M4.125 15.375V12.375C4.125 11.9772 4.28304 11.5956 4.56434 11.3143C4.84564 11.033 5.22718 10.875 5.625 10.875H9.375V9.375H2.25V22.125C2.25 22.5228 2.40804 22.9044 2.68934 23.1857C2.97064 23.467 3.35218 23.625 3.75 23.625H9.375V21.9521C7.88441 21.6124 6.55331 20.7767 5.59956 19.5819C4.64581 18.387 4.12593 16.9038 4.125 15.375Z" fill="#E68C15"/>
<path d="M10.875 22.125C10.3701 22.1235 9.86699 22.0655 9.375 21.9521V23.625H14.625V22.125H10.875Z" fill="#A81E29"/>
<path d="M9.375 9.375H14.625V10.875H9.375V9.375Z" fill="#A81E29"/>
<path d="M4.3125 7.5C3.9644 7.5 3.63056 7.36172 3.38442 7.11558C3.13828 6.86944 3 6.5356 3 6.1875C3 5.8394 3.13828 5.50556 3.38442 5.25942C3.63056 5.01328 3.9644 4.875 4.3125 4.875H1.125C0.92627 4.87559 0.735849 4.9548 0.595326 5.09533C0.454802 5.23585 0.375594 5.42627 0.375 5.625V8.625C0.375594 8.82373 0.454802 9.01415 0.595326 9.15467C0.735849 9.2952 0.92627 9.37441 1.125 9.375H9V7.5H4.3125Z" fill="#FFA930"/>
<path d="M22.875 7.5H15V9.375H22.875C23.0737 9.37441 23.2642 9.2952 23.4047 9.15467C23.5452 9.01415 23.6244 8.82373 23.625 8.625V6.75C23.625 6.94891 23.546 7.13968 23.4053 7.28033C23.2647 7.42098 23.0739 7.5 22.875 7.5Z" fill="#FFA930"/>
<path d="M9 7.5V9.375H9.375H14.625H15V7.5H9Z" fill="#CB3541"/>
<path d="M8.625 2.25001C8.625 2.25001 6.43688 1.52213 5.298 1.86263C5.2707 1.99011 5.25464 2.11973 5.25 2.25001C7.04964 2.25766 8.78405 2.92474 10.125 4.12501C10.125 4.12501 10.125 2.47013 9.24375 1.35901C9.24487 1.83338 9.10875 2.25001 8.625 2.25001Z" fill="#A81E29"/>
<path d="M15.75 2.25C15.1275 2.25 15.0799 1.56112 15.1609 0.945374C13.875 1.99462 13.875 4.125 13.875 4.125C15.2159 2.92473 16.9504 2.25765 18.75 2.25C18.7445 2.09394 18.7229 1.93886 18.6855 1.78725C17.5005 1.66725 15.75 2.25 15.75 2.25Z" fill="#A81E29"/>
<path d="M8.57924 3.29286C8.59099 3.34774 8.59037 3.40453 8.57744 3.45914C8.5645 3.51374 8.53957 3.56478 8.50446 3.60855C8.46934 3.65232 8.42492 3.68772 8.37442 3.71218C8.32392 3.73665 8.26861 3.74956 8.21249 3.74999H4.49999C4.30108 3.74999 4.11032 3.67097 3.96966 3.53032C3.82901 3.38967 3.74999 3.1989 3.74999 2.99999V2.79861C3.62572 2.9231 3.52832 3.07177 3.46382 3.23541C3.39932 3.39905 3.36908 3.57419 3.37499 3.74999C3.37182 3.8986 3.39875 4.04631 3.45417 4.18423C3.50958 4.32216 3.59233 4.44744 3.69744 4.55254C3.80254 4.65765 3.92783 4.7404 4.06575 4.79581C4.20368 4.85123 4.35139 4.87816 4.49999 4.87499H10.125V4.12499C9.64069 3.68069 9.09372 3.30998 8.50162 3.02474C8.53441 3.11197 8.56036 3.20161 8.57924 3.29286Z" fill="#CB3541"/>
<path d="M19.875 3.75H16.1625C16.1063 3.74968 16.0509 3.73685 16.0003 3.71243C15.9497 3.68802 15.9052 3.65263 15.87 3.60885C15.8348 3.56506 15.8098 3.51399 15.7968 3.45933C15.7839 3.40467 15.7832 3.34781 15.795 3.29288C15.83 3.12501 15.8894 2.96317 15.9713 2.8125C15.2004 3.12254 14.4906 3.56693 13.875 4.125V4.875H19.5C19.6486 4.87817 19.7963 4.85124 19.9342 4.79582C20.0722 4.74041 20.1975 4.65766 20.3026 4.55256C20.4077 4.44745 20.4904 4.32217 20.5458 4.18424C20.6012 4.04632 20.6282 3.89861 20.625 3.75C20.6254 3.59981 20.6028 3.45045 20.5579 3.30713C20.4988 3.43884 20.4029 3.55069 20.2817 3.62925C20.1606 3.70781 20.0194 3.74974 19.875 3.75Z" fill="#CB3541"/>
<path d="M18.75 12.1125V4.875H18V12.1125C18.0451 12.1686 18.1022 12.2139 18.1671 12.245C18.232 12.2761 18.303 12.2922 18.375 12.2922C18.447 12.2922 18.518 12.2761 18.5829 12.245C18.6478 12.2139 18.7049 12.1686 18.75 12.1125Z" fill="#A81E29"/>
<path d="M13.6425 19.2075C13.4888 18.8775 14.0962 18.2625 14.0137 17.895C13.935 17.5388 13.125 17.2575 13.125 16.875C13.125 16.4925 13.935 16.2113 14.0137 15.855C14.0745 15.5839 13.761 15.18 13.6534 14.8511C13.3414 15.0386 12.6604 14.9933 12.5175 15.2925C12.3638 15.6225 12.9712 16.2375 12.8887 16.605C12.81 16.9613 12 17.2425 12 17.625C12 18.0075 12.81 18.2888 12.8887 18.645C12.9712 19.0125 12.3638 19.6275 12.5175 19.9575C12.6788 20.295 13.5262 20.19 13.7512 20.4825C13.9762 20.775 13.6913 21.5963 13.9763 21.8288C14.1169 21.945 14.3681 21.885 14.625 21.8164V19.5803C14.2841 19.4659 13.7651 19.4644 13.6425 19.2075Z" fill="#961B25"/>
<path d="M17.205 22.1175C16.8488 22.035 16.7587 21.165 16.4325 21.0038C16.1062 20.8425 15.3825 21.3113 15.1013 21.0788C14.82 20.8463 15.105 20.0213 14.8762 19.7325C14.809 19.6586 14.7217 19.6057 14.625 19.5803V21.8164C14.8403 21.7246 15.0791 21.7027 15.3075 21.7538C15.4368 21.8454 15.5343 21.9752 15.5861 22.125C15.7297 22.4325 15.8486 22.8143 16.08 22.8675C16.4288 22.95 16.8787 22.2075 17.25 22.2075C17.6213 22.2075 18.0712 22.95 18.42 22.8675C18.6506 22.8143 18.7699 22.4325 18.9127 22.125C18.9503 22.0411 18.996 21.9611 19.0493 21.8861C18.8209 21.6945 18.5854 21.4575 18.3743 21.4575C18.0038 21.4575 17.5538 22.2 17.205 22.1175Z" fill="#E68C15"/>
<path d="M20.6517 20.9846C20.5399 20.9563 20.4221 20.9629 20.3142 21.0038C20.1035 21.1091 19.9913 21.5145 19.8398 21.8078C20.1083 21.8798 20.3753 21.9503 20.5242 21.8288C20.7001 21.6851 20.657 21.3146 20.6517 20.9846Z" fill="#E68C15"/>
<path d="M16.4363 12.7463C16.493 12.7128 16.5412 12.6667 16.5773 12.6116C16.4021 12.4658 16.2315 12.3465 16.08 12.3825C15.9566 12.411 15.8659 12.5366 15.7856 12.6923C15.9913 12.7789 16.2192 12.7979 16.4363 12.7463Z" fill="#E68C15"/>
<path d="M17.205 11.6325C17.2829 11.6289 17.3607 11.642 17.4331 11.6709C17.5055 11.6998 17.571 11.7439 17.625 11.8001V9.375H16.875V12.0124C16.9639 11.8241 17.0625 11.6655 17.205 11.6325Z" fill="#E68C15"/>
<path d="M14.6249 13.4329C14.3688 13.3646 14.1183 13.3054 13.9761 13.4213C13.78 13.5814 13.8535 14.0213 13.8464 14.373C14.0624 14.2774 14.3849 14.25 14.6249 14.1705V13.4329Z" fill="#961B25"/>
</g>
<defs>
<clipPath id="clip0_207_1595">
<rect width="24" height="24" fill="white"/>
</clipPath>
</defs>
</svg>
